<mxfile host="app.diagrams.net" agent="Mozilla/5.0 (Windows NT 10.0; Win64; x64) AppleWebKit/537.36 (KHTML, like Gecko) Chrome/140.0.0.0 Safari/537.36" version="28.2.5">
  <diagram name="PÃ¡gina-1" id="iLKyFTR8yh8IB7GQRXJk">
    <mxGraphModel dx="1678" dy="914" grid="1" gridSize="10" guides="1" tooltips="1" connect="1" arrows="1" fold="1" page="1" pageScale="1" pageWidth="827" pageHeight="1169" math="0" shadow="0">
      <root>
        <mxCell id="0" />
        <mxCell id="1" parent="0" />
        <mxCell id="_MO1rrqmRufqIhow68la-5" style="edgeStyle=orthogonalEdgeStyle;rounded=0;orthogonalLoop=1;jettySize=auto;html=1;entryX=0.5;entryY=0;entryDx=0;entryDy=0;" edge="1" parent="1" source="_MO1rrqmRufqIhow68la-1" target="_MO1rrqmRufqIhow68la-2">
          <mxGeometry relative="1" as="geometry" />
        </mxCell>
        <mxCell id="_MO1rrqmRufqIhow68la-1" value="&lt;font style=&quot;font-size: 24px;&quot;&gt;START&lt;/font&gt;" style="ellipse;whiteSpace=wrap;html=1;" vertex="1" parent="1">
          <mxGeometry x="380" y="80" width="120" height="80" as="geometry" />
        </mxCell>
        <mxCell id="_MO1rrqmRufqIhow68la-7" style="edgeStyle=orthogonalEdgeStyle;rounded=0;orthogonalLoop=1;jettySize=auto;html=1;entryX=0.5;entryY=0;entryDx=0;entryDy=0;" edge="1" parent="1" source="_MO1rrqmRufqIhow68la-2" target="_MO1rrqmRufqIhow68la-3">
          <mxGeometry relative="1" as="geometry" />
        </mxCell>
        <mxCell id="_MO1rrqmRufqIhow68la-2" value="&lt;font style=&quot;font-size: 24px;&quot;&gt;I&lt;/font&gt;" style="ellipse;whiteSpace=wrap;html=1;" vertex="1" parent="1">
          <mxGeometry x="380" y="250" width="120" height="90" as="geometry" />
        </mxCell>
        <mxCell id="_MO1rrqmRufqIhow68la-8" style="edgeStyle=orthogonalEdgeStyle;rounded=0;orthogonalLoop=1;jettySize=auto;html=1;entryX=0.5;entryY=0;entryDx=0;entryDy=0;" edge="1" parent="1" source="_MO1rrqmRufqIhow68la-3" target="_MO1rrqmRufqIhow68la-4">
          <mxGeometry relative="1" as="geometry" />
        </mxCell>
        <mxCell id="_MO1rrqmRufqIhow68la-14" style="edgeStyle=orthogonalEdgeStyle;rounded=0;orthogonalLoop=1;jettySize=auto;html=1;entryX=1;entryY=0.5;entryDx=0;entryDy=0;exitX=1;exitY=0.5;exitDx=0;exitDy=0;" edge="1" parent="1" source="_MO1rrqmRufqIhow68la-3" target="_MO1rrqmRufqIhow68la-2">
          <mxGeometry relative="1" as="geometry" />
        </mxCell>
        <mxCell id="_MO1rrqmRufqIhow68la-3" value="&lt;font style=&quot;font-size: 24px;&quot;&gt;J&lt;/font&gt;" style="ellipse;whiteSpace=wrap;html=1;" vertex="1" parent="1">
          <mxGeometry x="380" y="440" width="120" height="80" as="geometry" />
        </mxCell>
        <mxCell id="_MO1rrqmRufqIhow68la-13" style="edgeStyle=orthogonalEdgeStyle;rounded=0;orthogonalLoop=1;jettySize=auto;html=1;entryX=0;entryY=0.5;entryDx=0;entryDy=0;exitX=0;exitY=0.5;exitDx=0;exitDy=0;" edge="1" parent="1" source="_MO1rrqmRufqIhow68la-4" target="_MO1rrqmRufqIhow68la-3">
          <mxGeometry relative="1" as="geometry" />
        </mxCell>
        <mxCell id="_MO1rrqmRufqIhow68la-31" style="edgeStyle=orthogonalEdgeStyle;rounded=0;orthogonalLoop=1;jettySize=auto;html=1;entryX=0.5;entryY=0;entryDx=0;entryDy=0;" edge="1" parent="1" source="_MO1rrqmRufqIhow68la-4" target="_MO1rrqmRufqIhow68la-30">
          <mxGeometry relative="1" as="geometry" />
        </mxCell>
        <mxCell id="_MO1rrqmRufqIhow68la-4" value="&lt;span style=&quot;font-size: 24px;&quot;&gt;PRINT&lt;/span&gt;" style="ellipse;whiteSpace=wrap;html=1;" vertex="1" parent="1">
          <mxGeometry x="380" y="610" width="120" height="80" as="geometry" />
        </mxCell>
        <mxCell id="_MO1rrqmRufqIhow68la-22" value="" style="edgeStyle=orthogonalEdgeStyle;rounded=0;orthogonalLoop=1;jettySize=auto;html=1;" edge="1" parent="1" source="_MO1rrqmRufqIhow68la-16" target="_MO1rrqmRufqIhow68la-19">
          <mxGeometry relative="1" as="geometry">
            <Array as="points">
              <mxPoint x="440" y="1380" />
              <mxPoint x="440" y="1380" />
            </Array>
          </mxGeometry>
        </mxCell>
        <mxCell id="_MO1rrqmRufqIhow68la-16" value="&lt;font style=&quot;font-size: 24px;&quot;&gt;START&lt;/font&gt;" style="rounded=1;whiteSpace=wrap;html=1;fillColor=#008a00;fontColor=#ffffff;strokeColor=#005700;" vertex="1" parent="1">
          <mxGeometry x="380" y="1250" width="120" height="60" as="geometry" />
        </mxCell>
        <mxCell id="_MO1rrqmRufqIhow68la-18" value="&lt;font style=&quot;font-size: 24px;&quot;&gt;END&lt;/font&gt;" style="rounded=1;whiteSpace=wrap;html=1;fillColor=#008a00;fontColor=#ffffff;strokeColor=#005700;" vertex="1" parent="1">
          <mxGeometry x="150" y="1380" width="120" height="60" as="geometry" />
        </mxCell>
        <mxCell id="_MO1rrqmRufqIhow68la-23" style="edgeStyle=orthogonalEdgeStyle;rounded=0;orthogonalLoop=1;jettySize=auto;html=1;entryX=0.5;entryY=0;entryDx=0;entryDy=0;" edge="1" parent="1" source="_MO1rrqmRufqIhow68la-19" target="_MO1rrqmRufqIhow68la-20">
          <mxGeometry relative="1" as="geometry" />
        </mxCell>
        <mxCell id="_MO1rrqmRufqIhow68la-27" style="edgeStyle=orthogonalEdgeStyle;rounded=0;orthogonalLoop=1;jettySize=auto;html=1;entryX=1;entryY=0.5;entryDx=0;entryDy=0;" edge="1" parent="1" source="_MO1rrqmRufqIhow68la-19" target="_MO1rrqmRufqIhow68la-18">
          <mxGeometry relative="1" as="geometry" />
        </mxCell>
        <mxCell id="_MO1rrqmRufqIhow68la-19" value="&lt;font style=&quot;font-size: 24px;&quot;&gt;I&lt;/font&gt;" style="rhombus;whiteSpace=wrap;html=1;fillColor=#e51400;fontColor=#ffffff;strokeColor=#B20000;" vertex="1" parent="1">
          <mxGeometry x="380" y="1380" width="120" height="60" as="geometry" />
        </mxCell>
        <mxCell id="_MO1rrqmRufqIhow68la-24" style="edgeStyle=orthogonalEdgeStyle;rounded=0;orthogonalLoop=1;jettySize=auto;html=1;entryX=0.5;entryY=0;entryDx=0;entryDy=0;" edge="1" parent="1" source="_MO1rrqmRufqIhow68la-20" target="_MO1rrqmRufqIhow68la-21">
          <mxGeometry relative="1" as="geometry" />
        </mxCell>
        <mxCell id="_MO1rrqmRufqIhow68la-26" style="edgeStyle=orthogonalEdgeStyle;rounded=0;orthogonalLoop=1;jettySize=auto;html=1;entryX=1;entryY=0.5;entryDx=0;entryDy=0;exitX=1;exitY=0.5;exitDx=0;exitDy=0;" edge="1" parent="1" source="_MO1rrqmRufqIhow68la-20" target="_MO1rrqmRufqIhow68la-19">
          <mxGeometry relative="1" as="geometry" />
        </mxCell>
        <mxCell id="_MO1rrqmRufqIhow68la-20" value="&lt;font style=&quot;font-size: 24px;&quot;&gt;J&lt;/font&gt;" style="rhombus;whiteSpace=wrap;html=1;fillColor=#e51400;fontColor=#ffffff;strokeColor=#B20000;" vertex="1" parent="1">
          <mxGeometry x="380" y="1520" width="120" height="60" as="geometry" />
        </mxCell>
        <mxCell id="_MO1rrqmRufqIhow68la-25" style="edgeStyle=orthogonalEdgeStyle;rounded=0;orthogonalLoop=1;jettySize=auto;html=1;entryX=0;entryY=0.5;entryDx=0;entryDy=0;exitX=0;exitY=0.5;exitDx=0;exitDy=0;" edge="1" parent="1" source="_MO1rrqmRufqIhow68la-21" target="_MO1rrqmRufqIhow68la-20">
          <mxGeometry relative="1" as="geometry" />
        </mxCell>
        <mxCell id="_MO1rrqmRufqIhow68la-21" value="&lt;font style=&quot;font-size: 24px;&quot;&gt;PRINT&lt;/font&gt;" style="rounded=0;whiteSpace=wrap;html=1;fillColor=#1ba1e2;fontColor=#ffffff;strokeColor=#006EAF;" vertex="1" parent="1">
          <mxGeometry x="380" y="1670" width="120" height="60" as="geometry" />
        </mxCell>
        <mxCell id="_MO1rrqmRufqIhow68la-30" value="&lt;font style=&quot;font-size: 24px;&quot;&gt;END&lt;/font&gt;" style="ellipse;whiteSpace=wrap;html=1;" vertex="1" parent="1">
          <mxGeometry x="380" y="770" width="120" height="80" as="geometry" />
        </mxCell>
      </root>
    </mxGraphModel>
  </diagram>
</mxfile>
